<svg width="35" height="202" viewBox="0 0 35 202" fill="none" xmlns="http://www.w3.org/2000/svg">
<path fill-rule="evenodd" clip-rule="evenodd" d="M17 2.21655C17.8284 2.21655 18.5 2.88813 18.5 3.71655V191.717C18.5 192.545 17.8284 193.217 17 193.217C16.1716 193.217 15.5 192.545 15.5 191.717V3.71655C15.5 2.88813 16.1716 2.21655 17 2.21655Z" fill="#CB0000"/>
<path fill-rule="evenodd" clip-rule="evenodd" d="M18.6809 1.52343C18.7347 1.59259 18.8122 1.68768 18.9187 1.81163C19.2734 2.22479 19.8237 2.81423 20.5233 3.53543C21.9155 4.97066 23.8239 6.85052 25.7578 8.72645C27.6891 10.5999 29.636 12.4599 31.1006 13.8522C31.8328 14.5482 32.4441 15.1269 32.8722 15.5315C33.0862 15.7338 33.2545 15.8925 33.3691 16.0006L33.5438 16.1652C33.5438 16.1652 33.5445 16.1658 32.5165 17.2582C31.4886 18.3507 31.4884 18.3505 31.4884 18.3505L31.3111 18.1833C31.1956 18.0745 31.0265 17.915 30.8116 17.7118C30.3817 17.3055 29.7683 16.7248 29.0337 16.0266C27.565 14.6304 25.6102 12.7629 23.669 10.8798C21.7303 8.99915 19.7951 7.09345 18.3699 5.62426C17.8889 5.12834 17.4571 4.67316 17.0992 4.28034L3.06066 18.3189C2.47487 18.9047 1.52513 18.9047 0.93934 18.3189C0.353553 17.7331 0.353553 16.7834 0.93934 16.1976L16.1976 0.93934C16.7834 0.353553 17.7331 0.353553 18.3189 0.93934C18.4889 1.10932 18.6095 1.30995 18.6809 1.52343ZM33.609 18.2862C33.0412 18.8895 32.0917 18.9182 31.4884 18.3505L32.5165 17.2582L33.5438 16.1652C34.1471 16.7329 34.1767 17.6828 33.609 18.2862Z" fill="#CB0000"/>
<path d="M27.5 51.2166C27.5 56.7394 23.0228 61.2166 17.5 61.2166C11.9772 61.2166 7.5 56.7394 7.5 51.2166C7.5 45.6937 11.9772 41.2166 17.5 41.2166C23.0228 41.2166 27.5 45.6937 27.5 51.2166Z" fill="#CB0000"/>
<path d="M27.5 121.217C27.5 126.739 23.0228 131.217 17.5 131.217C11.9772 131.217 7.5 126.739 7.5 121.217C7.5 115.694 11.9772 111.217 17.5 111.217C23.0228 111.217 27.5 115.694 27.5 121.217Z" fill="#CB0000"/>
<path d="M27.5 191.217C27.5 196.739 23.0228 201.217 17.5 201.217C11.9772 201.217 7.5 196.739 7.5 191.217C7.5 185.694 11.9772 181.217 17.5 181.217C23.0228 181.217 27.5 185.694 27.5 191.217Z" fill="#CB0000"/>
</svg>
