<svg width="93" height="40" viewBox="0 0 93 40" fill="none" xmlns="http://www.w3.org/2000/svg">
<rect width="93" height="40" fill="#4EACD5"/>
<path d="M50.168 17.2607V25.0195H48.8301V21.5186H45.5977V25.0195H44.2598V17.2607H45.5977V20.4199H48.8301V17.2607H50.168ZM51.7549 20.9131C52.0381 19.904 52.7949 19.3994 54.0254 19.3994C55.4447 19.3994 56.1543 20.0065 56.1543 21.2207V23.3984C56.1543 23.929 56.1836 24.4694 56.2422 25.0195H55.085C55.0492 24.8145 55.0182 24.5752 54.9922 24.3018C54.5983 24.8682 54.0221 25.1514 53.2637 25.1514C52.7201 25.1514 52.2936 24.9854 51.9844 24.6533C51.7109 24.3604 51.5742 23.9827 51.5742 23.5205C51.5742 22.5439 52.1715 21.9401 53.3662 21.709C53.8089 21.6243 54.3314 21.5723 54.9336 21.5527V21.2402C54.9336 20.8757 54.8473 20.6169 54.6748 20.4639C54.5251 20.3337 54.2939 20.2686 53.9814 20.2686C53.695 20.2686 53.4574 20.3613 53.2686 20.5469C53.096 20.7161 52.9837 20.944 52.9316 21.2305L51.7549 20.9131ZM54.9336 22.3291C54.5137 22.3389 54.0938 22.3926 53.6738 22.4902C53.0749 22.6335 52.7754 22.9443 52.7754 23.4229C52.7754 23.9762 53.0684 24.2529 53.6543 24.2529C54.1882 24.2529 54.6146 23.9518 54.9336 23.3496V22.3291ZM59.2354 17.7393V19.5312H60.4658V20.4492H59.2354V23.4619C59.2354 23.9893 59.4616 24.2529 59.9141 24.2529C60.1582 24.2529 60.3714 24.2318 60.5537 24.1895L60.5049 25.0879C60.2282 25.1302 59.901 25.1514 59.5234 25.1514C58.9668 25.1514 58.5664 25.0179 58.3223 24.751C58.1042 24.5133 57.9951 24.1602 57.9951 23.6914V20.4492H57.1748V19.5312H57.9951V18.0225L59.2354 17.7393ZM66.1445 22.5488H62.4336C62.4401 23.1217 62.5736 23.5612 62.834 23.8672C63.0716 24.1439 63.3988 24.2822 63.8154 24.2822C64.4046 24.2822 64.7904 23.9339 64.9727 23.2373L66.1152 23.5693C65.7702 24.6305 64.9987 25.1611 63.8008 25.1611C62.9251 25.1611 62.2594 24.8779 61.8037 24.3115C61.4033 23.8167 61.2031 23.1494 61.2031 22.3096C61.2031 21.359 61.4635 20.6201 61.9844 20.0928C62.4303 19.637 63 19.4092 63.6934 19.4092C64.4681 19.4092 65.0801 19.6908 65.5293 20.2539C65.9395 20.765 66.1445 21.4437 66.1445 22.29V22.5488ZM64.9141 21.7188C64.8522 20.7585 64.4518 20.2783 63.7129 20.2783C63.3125 20.2783 63.0016 20.4248 62.7803 20.7178C62.5915 20.9684 62.4824 21.3021 62.4531 21.7188H64.9141ZM68.6348 19.5312V20.4932C68.8757 20.1351 69.1621 19.86 69.4941 19.668C69.7969 19.4954 70.111 19.4092 70.4365 19.4092C70.9346 19.4092 71.3268 19.5719 71.6133 19.8975C71.8737 20.1904 72.0039 20.5778 72.0039 21.0596V25.0195H70.7148V21.4111C70.7148 20.7959 70.4609 20.4883 69.9531 20.4883C69.7188 20.4883 69.4779 20.5827 69.2305 20.7715C69.0189 20.9375 68.8333 21.154 68.6738 21.4209V25.0195H67.4141V19.5312H68.6348ZM73.4346 20.9131C73.7178 19.904 74.4746 19.3994 75.7051 19.3994C77.1243 19.3994 77.834 20.0065 77.834 21.2207V23.3984C77.834 23.929 77.8633 24.4694 77.9219 25.0195H76.7646C76.7288 24.8145 76.6979 24.5752 76.6719 24.3018C76.278 24.8682 75.7018 25.1514 74.9434 25.1514C74.3997 25.1514 73.9733 24.9854 73.6641 24.6533C73.3906 24.3604 73.2539 23.9827 73.2539 23.5205C73.2539 22.5439 73.8512 21.9401 75.0459 21.709C75.4886 21.6243 76.0111 21.5723 76.6133 21.5527V21.2402C76.6133 20.8757 76.527 20.6169 76.3545 20.4639C76.2048 20.3337 75.9736 20.2686 75.6611 20.2686C75.3747 20.2686 75.137 20.3613 74.9482 20.5469C74.7757 20.7161 74.6634 20.944 74.6113 21.2305L73.4346 20.9131ZM76.6133 22.3291C76.1934 22.3389 75.7734 22.3926 75.3535 22.4902C74.7546 22.6335 74.4551 22.9443 74.4551 23.4229C74.4551 23.9762 74.748 24.2529 75.334 24.2529C75.8678 24.2529 76.2943 23.9518 76.6133 23.3496V22.3291Z" fill="white"/>
<path d="M25.1839 20.5352C24.6232 19.9086 23.8439 19.5566 22.8439 19.4805C23.7333 19.238 24.3793 18.8835 24.7879 18.4096C25.1945 17.942 25.3963 17.3073 25.3963 16.5084C25.3963 15.8761 25.2581 15.3166 24.9902 14.8334C24.7157 14.3531 24.3209 13.9685 23.8024 13.6807C23.3486 13.4312 22.8094 13.2552 22.1808 13.1514C21.5492 13.0508 20.4436 13 18.8572 13H15V27.0674H18.9741C20.5705 27.0674 21.722 27.0115 22.4259 26.9046C23.1292 26.794 23.7194 26.6079 24.1971 26.3528C24.7879 26.041 25.2385 25.5973 25.5534 25.0273C25.8702 24.4553 26.0273 23.7959 26.0273 23.0417C26.0273 21.9985 25.7463 21.16 25.1839 20.5352ZM18.5618 16.1187H19.3852C20.3367 16.1187 20.976 16.2261 21.3059 16.4398C21.6315 16.6549 21.7974 17.0257 21.7974 17.5542C21.7974 18.0627 21.6208 18.4209 21.2713 18.6309C20.9174 18.837 20.272 18.9413 19.3273 18.9413H18.5618V16.1187ZM21.8276 24.1856C21.453 24.4157 20.8075 24.5287 19.9018 24.5287H18.5618V21.4553H19.9597C20.8898 21.4553 21.5327 21.5723 21.8747 21.806C22.2223 22.0399 22.3932 22.4528 22.3932 23.0455C22.3932 23.576 22.2059 23.957 21.8276 24.1856Z" fill="white"/>
<path d="M30.0993 23.5037C29.1147 23.5037 28.3171 24.3008 28.3171 25.2853C28.3171 26.2699 29.1147 27.0674 30.0993 27.0674C31.0826 27.0674 31.8809 26.2699 31.8809 25.2853C31.8809 24.3008 31.0826 23.5037 30.0993 23.5037Z" fill="white"/>
<rect x="28.5518" y="13" width="3.09483" height="9.37828" fill="white"/>
</svg>
