<svg width="28" height="32" viewBox="0 0 28 32" fill="none" xmlns="http://www.w3.org/2000/svg">
<path fill-rule="evenodd" clip-rule="evenodd" d="M12.5 22.9998C18.299 22.9998 23 18.2987 23 12.4998C23 6.70077 18.299 1.99976 12.5 1.99976C6.70101 1.99976 2 6.70077 2 12.4998C2 18.2987 6.70101 22.9998 12.5 22.9998ZM12.5 24.9998C19.4036 24.9998 25 19.4033 25 12.4998C25 5.5962 19.4036 -0.000244141 12.5 -0.000244141C5.59644 -0.000244141 0 5.5962 0 12.4998C0 19.4033 5.59644 24.9998 12.5 24.9998Z" fill="white"/>
<path fill-rule="evenodd" clip-rule="evenodd" d="M26.2306 31.0671L19.1559 21.6341L20.7559 20.4341L27.8306 29.8671L26.2306 31.0671Z" fill="white"/>
</svg>
