<svg width="65" height="40" viewBox="0 0 65 40" fill="none" xmlns="http://www.w3.org/2000/svg">
<rect width="65" height="40" fill="#52B534"/>
<path d="M42.3148 18.2426C42.3148 13.6976 37.7584 9.99976 32.1574 9.99976C26.5571 9.99976 22 13.6976 22 18.2426C22 22.3174 25.6137 25.7298 30.4947 26.3752C30.8255 26.4463 31.2758 26.5932 31.3898 26.8759C31.492 27.1326 31.4567 27.535 31.4225 27.7945C31.4225 27.7945 31.3033 28.511 31.2775 28.664C31.2333 28.9206 31.0733 29.6683 32.1574 29.2115C33.2415 28.7546 38.0069 25.767 40.1381 23.3143C41.6102 21.6999 42.3148 20.0616 42.3148 18.2426Z" fill="white"/>
<path d="M30.0935 16.0461H29.3809C29.2717 16.0461 29.1831 16.1345 29.1831 16.2435V20.6695C29.1831 20.7785 29.2717 20.8669 29.3809 20.8669H30.0935C30.2025 20.8669 30.2914 20.7785 30.2914 20.6695V16.2435C30.2914 16.1345 30.2025 16.0461 30.0935 16.0461Z" fill="#00B900"/>
<path d="M34.9975 16.0461H34.2849C34.1756 16.0461 34.0871 16.1345 34.0871 16.2435V18.8729L32.0589 16.134C32.0543 16.1268 32.0489 16.1203 32.0435 16.1138L32.0422 16.1126C32.0384 16.1082 32.0342 16.1042 32.0303 16.1003L32.0266 16.097C32.0233 16.094 32.0198 16.091 32.0161 16.0882L32.011 16.0843C32.0075 16.0817 32.0043 16.0794 32.0008 16.0771L31.9947 16.0736C31.9912 16.0715 31.9878 16.0694 31.9843 16.0678L31.978 16.0647C31.9743 16.0631 31.9706 16.0612 31.9666 16.0599L31.9601 16.0575C31.9564 16.0562 31.9524 16.055 31.9485 16.0538L31.9415 16.0519C31.9378 16.051 31.9341 16.0503 31.9301 16.0494L31.9217 16.0482C31.9185 16.0478 31.915 16.0473 31.9113 16.0471C31.908 16.0466 31.9045 16.0466 31.901 16.0464L31.8943 16.0461H31.1817C31.0727 16.0461 30.9839 16.1345 30.9839 16.2435V20.6695C30.9839 20.7785 31.0727 20.8669 31.1817 20.8669H31.8943C32.0036 20.8669 32.0922 20.7785 32.0922 20.6695V18.0408L34.1229 20.7834C34.1368 20.8032 34.1543 20.8192 34.1731 20.8323L34.1752 20.8336C34.1791 20.8365 34.1831 20.839 34.1873 20.8411L34.1931 20.8441C34.1961 20.8457 34.1991 20.8474 34.2024 20.8488C34.2057 20.8502 34.2087 20.8516 34.2122 20.853L34.218 20.855C34.2226 20.8567 34.227 20.8581 34.2314 20.8595L34.2343 20.8602C34.2503 20.8643 34.2675 20.8669 34.2849 20.8669H34.9975C35.1068 20.8669 35.1953 20.7785 35.1953 20.6695V16.2435C35.1953 16.1345 35.1068 16.0461 34.9975 16.0461Z" fill="#00B900"/>
<path d="M28.3759 19.7589H26.44V16.244C26.44 16.1347 26.3517 16.0461 26.2424 16.0461H25.5299C25.4206 16.0461 25.332 16.1347 25.332 16.244V20.6693C25.332 20.7226 25.3532 20.7707 25.3874 20.8062L25.3901 20.8093L25.3929 20.812C25.4285 20.8462 25.4764 20.8672 25.5296 20.8672H28.3759C28.4852 20.8672 28.5735 20.7786 28.5735 20.6693V19.9567C28.5735 19.8475 28.4852 19.7589 28.3759 19.7589Z" fill="#00B900"/>
<path d="M38.9318 17.1544C39.0408 17.1544 39.1292 17.0658 39.1292 16.9565V16.244C39.1292 16.1347 39.0408 16.0461 38.9318 16.0461H36.0855C36.0321 16.0461 35.9837 16.0673 35.9479 16.1019L35.9458 16.104L35.9425 16.1075C35.9086 16.1429 35.8877 16.1908 35.8877 16.2438V20.669C35.8877 20.7223 35.9088 20.7707 35.943 20.806L35.9458 20.809L35.9486 20.8116C35.9842 20.8457 36.032 20.8669 36.0853 20.8669H38.9318C39.0408 20.8669 39.1292 20.7783 39.1292 20.669V19.9565C39.1292 19.8472 39.0408 19.7587 38.9318 19.7587H36.9959V19.0105H38.9318C39.0408 19.0105 39.1292 18.9219 39.1292 18.8127V18.1004C39.1292 17.9909 39.0408 17.9023 38.9318 17.9023H36.9959V17.1544H38.9318Z" fill="#00B900"/>
</svg>
