<svg width="81" height="40" viewBox="0 0 81 40" fill="none" xmlns="http://www.w3.org/2000/svg">
<rect width="81" height="40" fill="#52B534"/>
<path d="M45.1392 17.2607V23.9307H48.7769V25.0195H43.7769V17.2607H45.1392ZM51.3794 17.2607V25.0195H50.0171V17.2607H51.3794ZM59.1919 17.2607V25.0195H57.5415L55.6616 21.0205C55.2612 20.1579 54.8901 19.3034 54.5483 18.457H54.4116C54.4572 19.3164 54.48 20.2507 54.48 21.2598V25.0195H53.2397V17.2607H55.271L56.8823 20.6982C57.2795 21.5771 57.6229 22.4642 57.9126 23.3594H58.0493C57.9842 22.3047 57.9517 21.3574 57.9517 20.5176V17.2607H59.1919ZM66.1743 17.2607V18.3301H62.3999V20.3809H65.2515V21.4502H62.3999V23.9502H66.2524V25.0195H61.0522V17.2607H66.1743Z" fill="white"/>
<path d="M34.3148 18.2429C34.3148 13.6979 29.7584 10 24.1574 10C18.5571 10 14 13.6979 14 18.2429C14 22.3177 17.6137 25.73 22.4947 26.3754C22.8255 26.4465 23.2758 26.5935 23.3898 26.8762C23.492 27.1328 23.4567 27.5352 23.4225 27.7947C23.4225 27.7947 23.3033 28.5112 23.2775 28.6642C23.2333 28.9209 23.0733 29.6685 24.1574 29.2117C25.2415 28.7549 30.0069 25.7672 32.1381 23.3145C33.6102 21.7002 34.3148 20.0619 34.3148 18.2429Z" fill="white"/>
<path d="M22.0938 16.0467H21.3812C21.2719 16.0467 21.1833 16.135 21.1833 16.2441V20.6701C21.1833 20.7791 21.2719 20.8674 21.3812 20.8674H22.0938C22.2028 20.8674 22.2916 20.7791 22.2916 20.6701V16.2441C22.2916 16.135 22.2028 16.0467 22.0938 16.0467Z" fill="#00B900"/>
<path d="M26.9977 16.0467H26.2852C26.1759 16.0467 26.0873 16.135 26.0873 16.2441V18.8734L24.0591 16.1346C24.0545 16.1274 24.0491 16.1208 24.0438 16.1143L24.0424 16.1132C24.0387 16.1088 24.0345 16.1048 24.0305 16.1009L24.0268 16.0976C24.0236 16.0946 24.0201 16.0916 24.0164 16.0888L24.0113 16.0848C24.0078 16.0822 24.0045 16.0799 24.001 16.0776L23.995 16.0741C23.9915 16.072 23.988 16.0699 23.9845 16.0683L23.9782 16.0653C23.9745 16.0637 23.9708 16.0618 23.9669 16.0604L23.9603 16.0581C23.9566 16.0567 23.9527 16.0555 23.9487 16.0544L23.9417 16.0525C23.938 16.0516 23.9343 16.0509 23.9304 16.05L23.922 16.0488C23.9187 16.0483 23.9152 16.0479 23.9115 16.0476C23.9082 16.0471 23.9048 16.0471 23.9013 16.0469L23.8946 16.0467H23.182C23.0729 16.0467 22.9841 16.135 22.9841 16.2441V20.6701C22.9841 20.7791 23.0729 20.8674 23.182 20.8674H23.8946C24.0038 20.8674 24.0924 20.7791 24.0924 20.6701V18.0414L26.1231 20.784C26.1371 20.8037 26.1545 20.8198 26.1733 20.8328L26.1754 20.8342C26.1794 20.837 26.1833 20.8396 26.1875 20.8416L26.1933 20.8447C26.1964 20.8463 26.1994 20.8479 26.2026 20.8493C26.2059 20.8507 26.2089 20.8521 26.2124 20.8535L26.2182 20.8556C26.2229 20.8572 26.2273 20.8586 26.2317 20.86L26.2345 20.8607C26.2505 20.8649 26.2677 20.8674 26.2852 20.8674H26.9977C27.107 20.8674 27.1956 20.7791 27.1956 20.6701V16.2441C27.1956 16.135 27.107 16.0467 26.9977 16.0467Z" fill="#00B900"/>
<path d="M20.3762 19.7592H18.4403V16.2443C18.4403 16.135 18.3519 16.0464 18.2426 16.0464H17.5301C17.4208 16.0464 17.3323 16.135 17.3323 16.2443V20.6696C17.3323 20.7229 17.3534 20.771 17.3876 20.8065L17.3904 20.8096L17.3932 20.8123C17.4287 20.8465 17.4767 20.8675 17.5299 20.8675H20.3762C20.4854 20.8675 20.5738 20.7789 20.5738 20.6696V19.957C20.5738 19.8478 20.4854 19.7592 20.3762 19.7592Z" fill="#00B900"/>
<path d="M30.9323 17.1549C31.0413 17.1549 31.1297 17.0663 31.1297 16.9571V16.2445C31.1297 16.1353 31.0413 16.0467 30.9323 16.0467H28.086C28.0326 16.0467 27.9842 16.0678 27.9484 16.1025L27.9463 16.1046L27.943 16.1081C27.9091 16.1434 27.8882 16.1913 27.8882 16.2443V20.6696C27.8882 20.7228 27.9093 20.7712 27.9435 20.8065L27.9463 20.8096L27.9491 20.8121C27.9846 20.8463 28.0325 20.8674 28.0858 20.8674H30.9323C31.0413 20.8674 31.1297 20.7789 31.1297 20.6696V19.9571C31.1297 19.8478 31.0413 19.7592 30.9323 19.7592H28.9964V19.0111H30.9323C31.0413 19.0111 31.1297 18.9225 31.1297 18.8132V18.1009C31.1297 17.9914 31.0413 17.9028 30.9323 17.9028H28.9964V17.1549H30.9323Z" fill="#00B900"/>
</svg>
