<svg width="33" height="51" viewBox="0 0 33 51" fill="none" xmlns="http://www.w3.org/2000/svg">
<path d="M31.7522 35.8953C31.1718 34.5936 29.67 33.892 27.8843 34.0871C26.1818 34.2732 24.723 34.9944 23.4929 36.1619C21.9578 37.6193 21.7301 38.9027 22.6098 40.7992C21.166 41.426 19.9668 40.9714 19.0047 39.514C18.1207 38.1758 17.2928 36.7755 16.2391 35.5795C15.6517 34.9126 15.0291 34.3261 12.5573 33.0862C12.4319 32.8897 12.3009 32.6942 12.1588 32.5015C11.6017 31.7448 11.0217 30.9861 10.5994 30.1541C9.67284 28.3281 10.1972 26.7229 12.0685 25.9348C13.1344 25.4863 14.3454 25.3923 15.4679 25.0606C15.9823 24.9086 16.6755 24.6916 16.8841 24.2931C17.6867 22.7609 18.3261 21.1426 19.1413 19.2956C13.9571 19.181 10.5162 21.1473 8.89223 26.0821C7.74727 22.8596 8.54662 19.8718 11.0143 17.7325C13.618 15.4748 16.7971 14.6802 20.0987 14.1741C20.6791 14.0848 21.5346 13.8762 21.7277 13.4693C23.6631 9.39221 25.4858 5.26228 27.3815 1.05706C26.9596 0.927039 26.7472 0.813384 26.5293 0.800757C20.8541 0.476161 15.4898 1.52103 10.6513 4.61637C2.09773 10.0882 0.300798 19.2226 6.21785 27.4722C7.5457 29.3229 9.23085 30.9253 10.8113 32.5848C12.5329 34.3925 12.7818 36.2082 11.446 38.0187C9.08635 36.1852 7.22579 36.0912 4.70387 37.7624C2.68288 39.1014 1.21144 40.9017 0.406511 43.2136C-0.438215 45.6382 0.0575732 47.9553 1.68477 49.1802C3.4214 50.4884 5.59203 50.4024 7.75151 48.8472C10.909 46.5727 12.7191 43.396 13.6527 39.6866C13.8407 38.9396 13.9267 38.2114 13.9211 37.5009L13.945 37.5673C14.7588 37.3475 15.5881 36.985 17.3803 38.9878C17.8158 39.4747 18.3078 39.9209 18.7362 40.4195C19.9659 41.8511 21.5112 42.6041 23.4007 42.5653C26.0766 42.5111 28.5264 41.7754 30.5727 39.9793C31.9721 38.7511 32.371 37.2844 31.7522 35.8953Z" fill="white"/>
</svg>
