<svg width="91" height="40" viewBox="0 0 91 40" fill="none" xmlns="http://www.w3.org/2000/svg">
<rect width="91" height="40" fill="#DC4F5A"/>
<path d="M44.9746 17.2607H47.7139C49.5596 17.2607 50.4824 18.0013 50.4824 19.4824C50.4824 20.2539 50.2074 20.8382 49.6572 21.2354C49.1657 21.5869 48.4902 21.7627 47.6309 21.7627H46.3223V25.0195H44.9746V17.2607ZM46.3223 18.2715V20.752H47.5918C48.6107 20.752 49.1201 20.332 49.1201 19.4922C49.1201 18.6784 48.627 18.2715 47.6406 18.2715H46.3223ZM53.7441 19.4092C54.5449 19.4092 55.1715 19.6973 55.624 20.2734C56.0244 20.7845 56.2246 21.4502 56.2246 22.2705C56.2246 23.2178 55.9674 23.9551 55.4531 24.4824C55.0104 24.9349 54.4375 25.1611 53.7344 25.1611C52.9271 25.1611 52.2988 24.873 51.8496 24.2969C51.4525 23.7891 51.2539 23.1234 51.2539 22.2998C51.2539 21.3558 51.5127 20.6185 52.0303 20.0879C52.4762 19.6354 53.0475 19.4092 53.7441 19.4092ZM53.7441 20.3174C52.9434 20.3174 52.543 20.9717 52.543 22.2803C52.543 23.5954 52.9401 24.2529 53.7344 24.2529C54.5352 24.2529 54.9355 23.5954 54.9355 22.2803C54.9355 20.9717 54.5384 20.3174 53.7441 20.3174ZM61.8936 21.1621L60.6729 21.4404C60.5557 20.6982 60.2318 20.3271 59.7012 20.3271C58.8809 20.3271 58.4707 20.9782 58.4707 22.2803C58.4707 23.5889 58.8809 24.2432 59.7012 24.2432C60.2806 24.2432 60.6305 23.859 60.751 23.0908L61.9229 23.4131C61.7796 24.0186 61.4915 24.471 61.0586 24.7705C60.6842 25.0309 60.222 25.1611 59.6719 25.1611C58.8385 25.1611 58.2005 24.8747 57.7578 24.3018C57.3737 23.8005 57.1816 23.1331 57.1816 22.2998C57.1816 21.346 57.4355 20.6087 57.9434 20.0879C58.3828 19.6354 58.959 19.4092 59.6719 19.4092C60.3034 19.4092 60.8161 19.5817 61.21 19.9268C61.5518 20.2262 61.7796 20.638 61.8936 21.1621ZM67.6602 19.5312L65.8291 21.582L67.7627 25.0195H66.3809L65.0234 22.4316L64.2715 23.2617V25.0195H63.0312V17.1191H64.2715V21.9287L66.249 19.5312H67.6602ZM73.3438 22.5488H69.6328C69.6393 23.1217 69.7728 23.5612 70.0332 23.8672C70.2708 24.1439 70.598 24.2822 71.0146 24.2822C71.6038 24.2822 71.9896 23.9339 72.1719 23.2373L73.3145 23.5693C72.9694 24.6305 72.1979 25.1611 71 25.1611C70.1243 25.1611 69.4587 24.8779 69.0029 24.3115C68.6025 23.8167 68.4023 23.1494 68.4023 22.3096C68.4023 21.359 68.6628 20.6201 69.1836 20.0928C69.6296 19.637 70.1992 19.4092 70.8926 19.4092C71.6673 19.4092 72.2793 19.6908 72.7285 20.2539C73.1387 20.765 73.3438 21.4437 73.3438 22.29V22.5488ZM72.1133 21.7188C72.0514 20.7585 71.651 20.2783 70.9121 20.2783C70.5117 20.2783 70.2008 20.4248 69.9795 20.7178C69.7907 20.9684 69.6816 21.3021 69.6523 21.7188H72.1133ZM76.1123 17.7393V19.5312H77.3428V20.4492H76.1123V23.4619C76.1123 23.9893 76.3385 24.2529 76.791 24.2529C77.0352 24.2529 77.2484 24.2318 77.4307 24.1895L77.3818 25.0879C77.1051 25.1302 76.778 25.1514 76.4004 25.1514C75.8438 25.1514 75.4434 25.0179 75.1992 24.751C74.9811 24.5133 74.8721 24.1602 74.8721 23.6914V20.4492H74.0518V19.5312H74.8721V18.0225L76.1123 17.7393Z" fill="white"/>
<path d="M32.5787 10H15.0827C13.9466 10 13 10.8709 13 12.007V18.4829C13 24.3528 17.8472 29.238 23.8308 29.238C29.7764 29.238 34.5859 24.3528 34.5859 18.4829V12.007C34.5859 10.8709 33.6769 10 32.5787 10ZM29.9658 18.0284L24.8154 22.8758C24.5504 23.1788 24.1338 23.2924 23.8308 23.2924C23.452 23.2924 23.0733 23.1788 22.7704 22.8758L17.6959 18.0284C17.1656 17.4604 17.09 16.5136 17.6959 15.9077C18.2638 15.3775 19.2106 15.3018 19.7786 15.9077L23.8308 19.8083L27.9585 15.9077C28.4887 15.3018 29.4355 15.3775 29.9658 15.9077C30.496 16.5136 30.496 17.4604 29.9658 18.0284Z" fill="white"/>
</svg>
