<svg width="88" height="40" viewBox="0 0 88 40" fill="none" xmlns="http://www.w3.org/2000/svg">
<rect width="88" height="40" fill="#4A9FEB"/>
<path d="M48.1245 17.2607V18.3496H45.8149V25.0195H44.4526V18.3496H42.1626V17.2607H48.1245ZM55.6294 19.5312L54.1206 25.0195H52.6606L52.1089 22.5586C52.0828 22.4349 51.9526 21.7725 51.7183 20.5713H51.6011C51.4513 21.3786 51.3179 22.0443 51.2007 22.5684L50.6196 25.0195H49.1597L47.6899 19.5312H48.979L49.5015 21.9385C49.5535 22.1891 49.6284 22.5586 49.7261 23.0469C49.8107 23.4701 49.8726 23.7744 49.9116 23.96H50.019C50.0614 23.7809 50.1346 23.4277 50.2388 22.9004C50.3201 22.4967 50.3869 22.1842 50.439 21.9629L50.981 19.5312H52.4604L52.978 21.9629C53.1506 22.7441 53.2808 23.4098 53.3687 23.96H53.4907C53.52 23.8232 53.59 23.4717 53.7007 22.9053C53.7756 22.5244 53.8423 22.2054 53.9009 21.9482L54.4282 19.5312H55.6294ZM57.8999 19.5312V25.0195H56.6401V19.5312H57.8999ZM57.9536 17.2607V18.5498H56.5913V17.2607H57.9536ZM61.0103 17.7393V19.5312H62.2407V20.4492H61.0103V23.4619C61.0103 23.9893 61.2365 24.2529 61.689 24.2529C61.9331 24.2529 62.1463 24.2318 62.3286 24.1895L62.2798 25.0879C62.0031 25.1302 61.6759 25.1514 61.2983 25.1514C60.7417 25.1514 60.3413 25.0179 60.0972 24.751C59.8791 24.5133 59.77 24.1602 59.77 23.6914V20.4492H58.9497V19.5312H59.77V18.0225L61.0103 17.7393ZM64.8091 17.7393V19.5312H66.0396V20.4492H64.8091V23.4619C64.8091 23.9893 65.0353 24.2529 65.4878 24.2529C65.7319 24.2529 65.9451 24.2318 66.1274 24.1895L66.0786 25.0879C65.8019 25.1302 65.4748 25.1514 65.0972 25.1514C64.5405 25.1514 64.1401 25.0179 63.896 24.751C63.6779 24.5133 63.5688 24.1602 63.5688 23.6914V20.4492H62.7485V19.5312H63.5688V18.0225L64.8091 17.7393ZM71.7183 22.5488H68.0073C68.0138 23.1217 68.1473 23.5612 68.4077 23.8672C68.6453 24.1439 68.9725 24.2822 69.3892 24.2822C69.9784 24.2822 70.3641 23.9339 70.5464 23.2373L71.689 23.5693C71.3439 24.6305 70.5724 25.1611 69.3745 25.1611C68.4989 25.1611 67.8332 24.8779 67.3774 24.3115C66.9771 23.8167 66.7769 23.1494 66.7769 22.3096C66.7769 21.359 67.0373 20.6201 67.5581 20.0928C68.0041 19.637 68.5737 19.4092 69.2671 19.4092C70.0418 19.4092 70.6538 19.6908 71.103 20.2539C71.5132 20.765 71.7183 21.4437 71.7183 22.29V22.5488ZM70.4878 21.7188C70.4259 20.7585 70.0256 20.2783 69.2866 20.2783C68.8862 20.2783 68.5754 20.4248 68.354 20.7178C68.1652 20.9684 68.0562 21.3021 68.0269 21.7188H70.4878ZM75.8687 19.4092L75.7856 20.5908C75.0858 20.5908 74.5666 21.0547 74.228 21.9824V25.0195H72.9878V19.5312H74.1694V20.8789C74.5243 19.8991 75.0907 19.4092 75.8687 19.4092Z" fill="white"/>
<path d="M19.6014 28.0594C27.5228 28.0594 31.8546 21.4968 31.8546 15.8062C31.8546 15.6197 31.8508 15.4341 31.8422 15.2495C32.683 14.6416 33.414 13.8831 33.9907 13.0196C33.219 13.3624 32.3886 13.5934 31.5175 13.6976C32.4066 13.1646 33.0893 12.3209 33.4112 11.3154C32.5789 11.8087 31.6576 12.1674 30.6767 12.3606C29.8908 11.5236 28.7716 11 27.5332 11C25.1547 11 23.226 12.9287 23.226 15.3063C23.226 15.6443 23.2639 15.9729 23.3377 16.2882C19.7586 16.1083 16.5848 14.3945 14.461 11.7887C14.0908 12.425 13.8777 13.1646 13.8777 13.9532C13.8777 15.4474 14.638 16.7663 15.7941 17.538C15.0878 17.5163 14.4241 17.3222 13.8437 16.9992C13.8427 17.0172 13.8427 17.0353 13.8427 17.0542C13.8427 19.14 15.3274 20.8813 17.2977 21.2762C16.936 21.3746 16.5554 21.4277 16.1625 21.4277C15.885 21.4277 15.6152 21.4002 15.3529 21.35C15.9012 23.061 17.4909 24.3061 19.3761 24.3412C17.9018 25.4963 16.0451 26.1847 14.0273 26.1847C13.6799 26.1847 13.3371 26.1648 13 26.125C14.906 27.3464 17.169 28.0594 19.6014 28.0594Z" fill="white"/>
</svg>
